<svg xmlns="http://www.w3.org/2000/svg" xmlns:xlink="http://www.w3.org/1999/xlink" xmlns:inkscape="http://www.inkscape.org/namespaces/inkscape" version="1.1" width="180.031" height="127.559" viewBox="0 0 180.031 127.559">
<defs>
<path id="font_1_1" d="M.040985109 .2543335C.07998657 .3693695 .18899536 .3703766 .19999695 .3703766 .35099793 .3703766 .3619995 .1953125 .3619995 .11627197 .3619995 .055252077 .35699464 .038238527 .34999085 .018234253 .32798768-.05479431 .2979889-.1708374 .2979889-.19685364 .2979889-.20785523 .30299378-.21484375 .31098939-.21484375 .32398988-.21484375 .33198548-.19285584 .34298707-.15483094 .3659973-.07080078 .37599183-.0137786869 .37998963 .017227173 .38198854 .03024292 .38398744 .04324341 .3880005 .056243898 .41999818 .1552887 .48399354 .3043518 .5239868 .38337709 .5309906 .39537049 .54299929 .41737367 .54299929 .42137147 .54299929 .43138124 .5329895 .43138124 .5309906 .43138124 .5279999 .43138124 .5219879 .43138124 .5189972 .42437745 .46699525 .32936097 .4269867 .22932434 .3869934 .12828064 .38598634 .1592865 .3849945 .23532105 .34599305 .33236695 .32199098 .39337159 .28199769 .4423828 .21299744 .4423828 .08799744 .4423828 .017990113 .29034425 .017990113 .25933839 .017990113 .24932862 .026992798 .24932862 .036987306 .24932862L.040985109 .2543335Z"/>
<path id="font_1_3" d="M.18699646 .23144531C.21598816 .23144531 .2899933 .23344422 .33999635 .2544403 .4099884 .28442384 .4149933 .34339906 .4149933 .35740663 .4149933 .40138246 .3769989 .4423828 .30799867 .4423828 .19699097 .4423828 .04598999 .34539796 .04598999 .17037964 .04598999 .06829834 .10499573-.0107421879 .20298767-.0107421879 .34599305-.0107421879 .42999269 .095321658 .42999269 .10733032 .42999269 .113342288 .42399598 .12034607 .41799928 .12034607 .41299439 .12034607 .41099549 .11834717 .40499879 .1103363 .32598878 .011245728 .21699524 .011245728 .20498657 .011245728 .1269989 .011245728 .117996219 .095321658 .117996219 .12734986 .117996219 .13935852 .11898804 .17037964 .13398743 .23144531H.18699646M.13999939 .25343324C.1789856 .40538026 .28199769 .42037965 .30799867 .42037965 .35499574 .42037965 .38198854 .39138795 .38198854 .35740663 .38198854 .25343324 .22200012 .25343324 .18099976 .25343324H.13999939Z"/>
<path id="font_2_1" d="M.46299745 .2263794H.7689972C.7819977 .2263794 .80599978 .2263794 .80599978 .25038148 .80599978 .27539063 .7829895 .27539063 .7689972 .27539063H.46299745V.5821533C.46299745 .59513857 .46299745 .6191406 .43899537 .6191406 .4139862 .6191406 .4139862 .5961304 .4139862 .5821533V.27539063H.10699463C.09399414 .27539063 .069992069 .27539063 .069992069 .25138856 .069992069 .2263794 .09298706 .2263794 .10699463 .2263794H.4139862V-.08114624C.4139862-.09416199 .4139862-.11816406 .43798829-.11816406 .46299745-.11816406 .46299745-.09516907 .46299745-.08114624V.2263794Z"/>
<path id="font_3_1" d="M.33099366-.2400055C.33099366-.23701477 .33099366-.23500061 .31399537-.21800232 .18899536-.0920105 .15699768 .09700012 .15699768 .25 .15699768 .42399598 .19499207 .59799197 .31799317 .72299197 .33099366 .73498538 .33099366 .7369995 .33099366 .73999026 .33099366 .746994 .32699586 .75 .32099916 .75 .31098939 .75 .22099304 .6819916 .1619873 .5549927 .11099243 .44499208 .09899902 .33399964 .09899902 .25 .09899902 .17199707 .10998535 .050994874 .16499329-.06201172 .22499085-.18501282 .31098939-.25 .32099916-.25 .32699586-.25 .33099366-.24700928 .33099366-.2400055Z"/>
<path id="font_1_5" d="M.04499817-.122177127C.036987306-.15631104 .034988405-.16334534-.009002686-.16334534-.021011353-.16334534-.03201294-.16334534-.03201294-.18234253-.03201294-.19033814-.027008057-.19433594-.019012452-.19433594 .0079956059-.19433594 .036987306-.19134522 .06498718-.19134522 .09799194-.19134522 .13198853-.19433594 .1639862-.19433594 .16899109-.19433594 .18199158-.19433594 .18199158-.17434693 .18199158-.16334534 .17199707-.16334534 .1579895-.16334534 .10798645-.16334534 .10798645-.15631104 .10798645-.14727783 .10798645-.13523865 .1499939 .028259278 .15699768 .053268434 .16999817 .024261475 .19799805-.0107421879 .24899292-.0107421879 .36499024-.0107421879 .48999024 .13528443 .48999024 .28233338 .48999024 .37635804 .43299867 .4423828 .35699464 .4423828 .30699159 .4423828 .25898744 .40637208 .22599793 .36735536 .21598816 .42137147 .17298889 .4423828 .13598633 .4423828 .08999634 .4423828 .070999149 .4033661 .06199646 .38536073 .04399109 .35134889 .0309906 .29133607 .0309906 .28833009 .0309906 .27833558 .040985109 .27833558 .042999269 .27833558 .052993776 .27833558 .053985597 .2793274 .05999756 .30133058 .07699585 .37236024 .09700012 .42037965 .1329956 .42037965 .1499939 .42037965 .1639862 .41236878 .1639862 .37435914 .1639862 .35134889 .16099549 .3403473 .15699768 .323349L.04499817-.122177127M.22099304 .3123474C.22799683 .33935548 .25498963 .36735536 .272995 .38235475 .30799867 .41337586 .33699037 .42037965 .35398866 .42037965 .3939972 .42037965 .41799928 .38536073 .41799928 .32633973 .41799928 .26733399 .3849945 .15229798 .36698915 .11428833 .33299256 .044265748 .2849884 .011245728 .24798584 .011245728 .18199158 .011245728 .16899109 .0942688 .16899109 .10028076 .16899109 .10227966 .16899109 .104278568 .17199707 .11628723L.22099304 .3123474Z"/>
<path id="font_4_2" d="M.2899933 .4720459C.2979889 .4890442 .29899598 .49705506 .29899598 .5040436 .29899598 .53504946 .2709961 .5590515 .23999024 .5590515 .20199585 .5590515 .18998719 .52804568 .18499756 .51205447L.052993776 .07901001C.051986696 .07701111 .04798889 .06401062 .04798889 .06300354 .04798889 .05101013 .07899475 .041015626 .08699036 .041015626 .09399414 .041015626 .09498596 .043014528 .101989749 .058013917L.2899933 .4720459Z"/>
<path id="font_3_2" d="M.2889862 .25C.2889862 .32798768 .27799989 .44898988 .22299195 .56199648 .16299439 .68499758 .07699585 .75 .066986087 .75 .06098938 .75 .056991579 .74598696 .056991579 .73999026 .056991579 .7369995 .056991579 .73498538 .07598877 .71699526 .17399597 .6179962 .23098755 .45899964 .23098755 .25 .23098755 .07899475 .19400025-.09700012 .069992069-.2230072 .056991579-.23500061 .056991579-.23701477 .056991579-.2400055 .056991579-.2460022 .06098938-.25 .066986087-.25 .07699585-.25 .16699219-.18200684 .22599793-.055007936 .2769928 .054992677 .2889862 .16600037 .2889862 .25Z"/>
<path id="font_4_1" d="M.74398806 .2263794C.7599945 .2263794 .7839966 .2263794 .7839966 .25038148 .7839966 .27539063 .7609863 .27539063 .74398806 .27539063H.147995C.13198853 .27539063 .10798645 .27539063 .10798645 .25138856 .10798645 .2263794 .1309967 .2263794 .147995 .2263794H.74398806Z"/>
<path id="font_1_2" d="M.23098755 .35134889C.23599243 .37236024 .24598694 .41036988 .24598694 .41537477 .24598694 .43237306 .23399353 .4423828 .21699524 .4423828 .21398926 .4423828 .18598938 .44137574 .1769867 .40637208L.032989503-.17282105C.02999878-.18482971 .02999878-.18682862 .02999878-.18882752 .02999878-.2038269 .040985109-.21582031 .057998659-.21582031 .07899475-.21582031 .09098816-.1978302 .09298706-.19482422 .09700012-.18582154 .10998535-.13380432 .147995 .020248414 .17999268-.0067443849 .22499085-.0107421879 .24499512-.0107421879 .31498719-.0107421879 .35398866 .03425598 .37799073 .06227112 .3869934 .01725769 .42399598-.0107421879 .46798707-.0107421879 .5029907-.0107421879 .526001 .012252808 .5419922 .044265748 .5589905 .08027649 .57199099 .14129639 .57199099 .14329529 .57199099 .1532898 .5629883 .1532898 .55999758 .1532898 .5499878 .1532898 .548996 .14929199 .54599 .13528443 .5289917 .07026672 .5109863 .011245728 .46998597 .011245728 .44299317 .011245728 .43998719 .037261964 .43998719 .057266237 .43998719 .07926941 .45199586 .12628174 .45999146 .16130066L.48799134 .2693329C.4909973 .28433229 .5009918 .32234193 .5049896 .3373413 .5099945 .36035157 .519989 .3983612 .519989 .40437318 .519989 .42237855 .5059967 .43138124 .4909973 .43138124 .48599244 .43138124 .45999146 .43037416 .45199586 .3963623L.40499879 .20930481C.3929901 .15930176 .38198854 .11727905 .3789978 .107284549 .37799073 .10227966 .32998658 .011245728 .24899292 .011245728 .19898987 .011245728 .1749878 .044265748 .1749878 .09828186 .1749878 .12728882 .18199158 .1552887 .18899536 .18330384L.23098755 .35134889Z"/>
<path id="font_1_4" d="M.2869873 .68333438C.2869873 .6843262 .2869873 .69433596 .27398683 .69433596 .25099183 .69433596 .17799378 .6863251 .1519928 .6843262 .14399719 .68333438 .1329956 .6823273 .1329956 .6643219 .1329956 .6523285 .14199829 .6523285 .15699768 .6523285 .20498657 .6523285 .20698548 .6453247 .20698548 .6353302L.20399475 .6153412 .05899048 .039260866C.054992677 .025253296 .054992677 .023254395 .054992677 .01725769 .054992677-.0057525637 .07499695-.0107421879 .083999637-.0107421879 .09700012-.0107421879 .11199951-.0017547608 .117996219 .010253906 .12298584 .019256592 .16799927 .20431519 .17399597 .22932434 .20799256 .22631836 .2899933 .21031189 .2899933 .14428711 .2899933 .13729859 .2899933 .13328552 .2869873 .123291019 .2849884 .11128235 .2829895 .09927368 .2829895 .088272098 .2829895 .029251099 .32299806-.0107421879 .375-.0107421879 .40499879-.0107421879 .43199159 .0052490236 .45399476 .042266847 .47898866 .08627319 .48999024 .14129639 .48999024 .14329529 .48999024 .1532898 .48098756 .1532898 .47799684 .1532898 .46798707 .1532898 .46699525 .14929199 .46398927 .13528443 .44400025 .06227112 .42099 .011245728 .3769989 .011245728 .35798646 .011245728 .34498597 .022247315 .34498597 .058273317 .34498597 .07527161 .34899903 .09828186 .35299684 .11428833 .35699464 .13128662 .35699464 .13528443 .35699464 .14529419 .35699464 .21031189 .2939911 .23931885 .20899964 .2503357 .23999024 .26834107 .27198792 .30033876 .29499818 .32435609 .34298707 .37734986 .3889923 .42037965 .43798829 .42037965 .44400025 .42037965 .44499208 .42037965 .44699098 .41937257 .45899964 .41737367 .45999146 .41737367 .46798707 .4113617 .46998597 .4103546 .46998597 .40934754 .47200013 .40734864 .42399598 .4043579 .4149933 .36535646 .4149933 .35334779 .4149933 .33735658 .42599488 .31835938 .45298768 .31835938 .47898866 .31835938 .5079956 .3403473 .5079956 .37934876 .5079956 .40934754 .4850006 .4423828 .43998719 .4423828 .4119873 .4423828 .3659973 .43437196 .2939911 .35435487 .2599945 .3163452 .22099304 .27633668 .18299866 .26133729L.2869873 .68333438Z"/>
</defs>
<path transform="matrix(1,0,0,-1,34.982,99.213)" stroke-width=".99626" stroke-linecap="round" stroke-linejoin="round" fill="none" stroke="#000000" d="M11.33919 70.86563 34.01581 35.43279"/>
<path transform="matrix(1,0,0,-1,34.982,99.213)" d="M18.37659 54.4253 26.7522 46.78235 23.32019 57.58914Z"/>
<path transform="matrix(1,0,0,-1,34.982,99.213)" stroke-width=".99626" stroke-linecap="round" stroke-linejoin="round" fill="none" stroke="#000000" d="M102.04582 0 79.36902 35.43274"/>
<path transform="matrix(1,0,0,-1,34.982,99.213)" d="M95.00833 16.44029 86.63268 24.08322 90.06476 13.27641Z"/>
<path transform="matrix(1,0,0,-1,34.982,99.213)" stroke-width=".99626" stroke-linecap="round" stroke-linejoin="round" fill="none" stroke="#000000" d="M34.01581 35.43279 11.33919 0"/>
<path transform="matrix(1,0,0,-1,34.982,99.213)" d="M22.03482 22.15631 18.6028 11.34952 26.9784 18.99246Z"/>
<path transform="matrix(1,0,0,-1,34.982,99.213)" stroke-width=".99626" stroke-linecap="round" stroke-linejoin="round" fill="none" stroke="#000000" d="M34.01581 35.43279C35.27563 37.61485 38.42517 37.61485 39.68498 35.43279 40.94478 33.25073 44.0943 33.25073 45.35411 35.43279 46.61394 37.61485 49.76347 37.61485 51.02328 35.43279 52.2831 33.25072 55.4326 33.25069 56.69241 35.43274 57.95224 37.6148 61.10178 37.6148 62.36159 35.43274 63.62138 33.25069 66.7709 33.25069 68.03072 35.43274 69.29054 37.6148 72.44008 37.6148 73.69989 35.43274 74.95969 33.25069 78.10922 33.25069 79.36902 35.43274"/>
<path transform="matrix(1,0,0,-1,34.982,99.213)" stroke-width=".99626" stroke-linecap="round" stroke-linejoin="round" fill="none" stroke="#000000" d="M79.36902 35.43274 102.04582 70.86563"/>
<path transform="matrix(1,0,0,-1,34.982,99.213)" d="M91.35008 48.70924 94.78217 59.51607 86.40651 51.87312Z"/>
<use data-text="&#x03b3;" xlink:href="#font_1_1" transform="matrix(9.96264,0,0,-9.96264,88.818,74.047)"/>
<use data-text="e" xlink:href="#font_1_3" transform="matrix(9.96264,0,0,-9.96264,14.801,110.825)"/>
<use data-text="+" xlink:href="#font_2_1" transform="matrix(6.97385,0,0,-6.97385,19.44,107.21)"/>
<use data-text="(" xlink:href="#font_3_1" transform="matrix(9.96264,0,0,-9.96264,26.054,110.825)"/>
<use data-text="p" xlink:href="#font_1_5" transform="matrix(9.96264,0,0,-9.96264,29.928,110.825)"/>
<use data-text="&#x2032;" xlink:href="#font_4_2" transform="matrix(6.97385,0,0,-6.97385,34.941,107.21)"/>
<use data-text=")" xlink:href="#font_3_2" transform="matrix(9.96264,0,0,-9.96264,37.736,110.825)"/>
<use data-text="e" xlink:href="#font_1_3" transform="matrix(9.96264,0,0,-9.96264,17.485,22.175995)"/>
<use data-text="&#x2212;" xlink:href="#font_4_1" transform="matrix(6.97385,0,0,-6.97385,22.124,18.560997)"/>
<use data-text="(" xlink:href="#font_3_1" transform="matrix(9.96264,0,0,-9.96264,28.849,22.175995)"/>
<use data-text="p" xlink:href="#font_1_5" transform="matrix(9.96264,0,0,-9.96264,32.723,22.175995)"/>
<use data-text=")" xlink:href="#font_3_2" transform="matrix(9.96264,0,0,-9.96264,37.736,22.175995)"/>
<use data-text="&#x00b5;" xlink:href="#font_1_2" transform="matrix(9.96264,0,0,-9.96264,141.738,110.825)"/>
<use data-text="+" xlink:href="#font_2_1" transform="matrix(6.97385,0,0,-6.97385,147.741,107.21)"/>
<use data-text="(" xlink:href="#font_3_1" transform="matrix(9.96264,0,0,-9.96264,154.355,110.825)"/>
<use data-text="k" xlink:href="#font_1_4" transform="matrix(9.96264,0,0,-9.96264,158.23,110.825)"/>
<use data-text="&#x2032;" xlink:href="#font_4_2" transform="matrix(6.97385,0,0,-6.97385,163.73,107.21)"/>
<use data-text=")" xlink:href="#font_3_2" transform="matrix(9.96264,0,0,-9.96264,166.525,110.825)"/>
<use data-text="&#x00b5;" xlink:href="#font_1_2" transform="matrix(9.96264,0,0,-9.96264,141.738,22.175995)"/>
<use data-text="&#x2212;" xlink:href="#font_4_1" transform="matrix(6.97385,0,0,-6.97385,147.741,18.560997)"/>
<use data-text="(" xlink:href="#font_3_1" transform="matrix(9.96264,0,0,-9.96264,154.466,22.175995)"/>
<use data-text="k" xlink:href="#font_1_4" transform="matrix(9.96264,0,0,-9.96264,158.34,22.175995)"/>
<use data-text=")" xlink:href="#font_3_2" transform="matrix(9.96264,0,0,-9.96264,163.84,22.175995)"/>
</svg>
